<?xml version="1.0" encoding="UTF-8" standalone="no"?>
<svg
   width="50"
   height="44.023937"
   version="1.1"
   id="svg1"
   sodipodi:docname="bluesky_50w.svg"
   inkscape:version="1.3.1 (9b9bdc1480, 2023-11-25, custom)"
   xmlns:inkscape="http://www.inkscape.org/namespaces/inkscape"
   xmlns:sodipodi="http://sodipodi.sourceforge.net/DTD/sodipodi-0.dtd"
   xmlns="http://www.w3.org/2000/svg"
   xmlns:svg="http://www.w3.org/2000/svg">
  <sodipodi:namedview
     id="namedview1"
     pagecolor="#505050"
     bordercolor="#eeeeee"
     borderopacity="1"
     inkscape:showpageshadow="0"
     inkscape:pageopacity="0"
     inkscape:pagecheckerboard="0"
     inkscape:deskcolor="#505050"
     inkscape:zoom="3.6471698"
     inkscape:cx="25.225039"
     inkscape:cy="22.071909"
     inkscape:window-width="3790"
     inkscape:window-height="2091"
     inkscape:window-x="50"
     inkscape:window-y="1472"
     inkscape:window-maximized="1"
     inkscape:current-layer="svg1"
     showgrid="false" />
  <defs
     id="defs1" />
  <path
     d="M 10.83816,2.9633523 C 16.57054,7.2668623 22.73637,15.992592 25.00015,20.675322 27.2641,15.992932 33.42958,7.2667823 39.16213,2.9633523 43.29832,-0.14188775 50,-2.5445477 50,5.1008423 c 0,1.52689 -0.87543,12.8266497 -1.38887,14.6611197 -1.78473,6.3779 -8.28823,8.00461 -14.07319,7.02005 10.11201,1.72102 12.6844,7.42168 7.12901,13.12233 -10.5508,10.82666 -15.16457,-2.71645 -16.34732,-6.18668 -0.21673,-0.63618 -0.31814,-0.93379 -0.31963,-0.68072 -0.001,-0.25308 -0.1029,0.0445 -0.31963,0.68072 -1.18223,3.47023 -5.79591,17.01369 -16.34732,6.18668 C 2.77757,34.203692 5.34988,28.502692 15.46206,26.782012 9.67693,27.766572 3.17334,26.139852 1.38887,19.761962 0.87541,17.927322 0,6.6275623 0,5.1008423 c 0,-7.64539 6.70186,-5.24273005 10.83787,-2.13749 z"
     fill="#1185fe"
     id="path1"
     style="fill:#000000;fill-opacity:1;stroke-width:0.0862064" />
</svg>
